<?xml version="1.0" standalone="no"?>
<!DOCTYPE svg PUBLIC "-//W3C//DTD SVG 20010904//EN"
 "http://www.w3.org/TR/2001/REC-SVG-20010904/DTD/svg10.dtd">
<svg version="1.0" xmlns="http://www.w3.org/2000/svg"
 width="790.000000pt" height="778.000000pt" viewBox="0 0 790.000000 778.000000"
 preserveAspectRatio="xMidYMid meet">
<metadata>
Created by potrace 1.16, written by Peter Selinger 2001-2019
</metadata>
<g transform="translate(0.000000,778.000000) scale(0.100000,-0.100000)"
fill="#000000" stroke="none">
<path d="M4125 7025 c-77 -7 -189 -23 -250 -35 -99 -19 -148 -32 -335 -86
-247 -72 -587 -243 -810 -408 -210 -155 -414 -351 -581 -558 -92 -114 -199
-273 -199 -294 0 -17 1 -17 225 -5 94 6 202 6 240 2 66 -7 72 -6 100 17 17 14
44 46 61 71 64 94 283 293 469 427 127 91 370 221 508 271 528 190 1121 200
1644 27 135 -44 342 -142 462 -217 309 -194 621 -508 798 -807 131 -220 243
-495 259 -635 3 -33 17 -105 31 -160 22 -87 25 -130 30 -335 8 -367 -18 -560
-117 -860 -45 -137 -151 -365 -231 -497 -55 -90 -202 -284 -278 -368 -232
-251 -542 -466 -851 -588 -363 -143 -787 -189 -1186 -128 -200 31 -470 109
-611 177 l-72 34 -99 -73 c-55 -41 -135 -95 -178 -122 -230 -141 -357 -221
-529 -333 -104 -68 -221 -144 -258 -169 -38 -24 -71 -43 -73 -41 -2 2 28 77
66 165 39 89 70 166 70 171 0 6 18 54 39 108 21 55 42 110 46 124 4 14 23 61
42 105 19 44 41 94 48 110 7 17 18 48 25 70 7 22 16 45 20 50 5 6 17 33 28 60
11 28 41 101 66 164 l47 114 -54 48 c-59 53 -230 274 -298 386 -24 40 -76 128
-114 195 l-70 123 -220 5 c-121 3 -225 4 -231 2 -8 -2 -9 -15 -2 -44 18 -80
61 -170 284 -583 20 -38 64 -106 96 -149 l59 -79 -25 -56 c-14 -31 -43 -108
-66 -171 -38 -106 -146 -389 -275 -720 -29 -74 -75 -193 -103 -265 -28 -71
-84 -215 -125 -320 -106 -270 -127 -330 -134 -395 -12 -122 20 -173 94 -150
57 18 184 84 297 155 150 93 412 251 576 348 80 48 237 142 350 211 113 69
311 189 440 267 l235 142 60 -21 c66 -24 416 -95 546 -112 149 -18 536 -13
710 11 162 21 499 102 597 143 31 13 74 29 96 36 66 21 297 135 386 190 280
172 547 412 714 639 33 46 80 107 103 136 23 29 60 86 84 126 23 41 67 117 97
169 71 122 72 126 127 250 112 255 167 450 211 754 24 168 26 199 21 426 -7
329 -33 497 -122 780 -103 330 -332 744 -560 1015 -278 329 -651 601 -1035
753 -187 74 -198 78 -311 111 -342 99 -716 131 -1104 96z"/>
<path d="M5275 5354 c-128 -66 -154 -212 -56 -317 37 -41 73 -57 126 -57 86 0
168 54 206 135 25 54 24 82 -7 144 -38 75 -96 111 -178 111 -36 0 -74 -7 -91
-16z"/>
<path d="M781 5334 c-14 -6 -43 -33 -63 -59 -33 -42 -38 -55 -38 -102 0 -30 6
-66 14 -81 20 -39 68 -81 102 -91 16 -5 138 -5 269 0 132 5 999 8 1926 8 1803
-1 1703 -3 1759 43 32 26 60 89 60 133 0 52 -44 117 -100 147 -34 18 -89 19
-1969 16 -1384 -2 -1941 -6 -1960 -14z"/>
<path d="M5290 4655 c-90 -41 -132 -97 -132 -176 1 -103 80 -179 186 -179 92
0 158 41 192 118 31 68 30 88 -5 144 -53 84 -165 127 -241 93z"/>
<path d="M5995 4654 c-70 -36 -115 -105 -115 -176 1 -50 41 -131 81 -160 83
-61 222 -10 279 102 25 49 25 90 1 138 -49 95 -163 139 -246 96z"/>
<path d="M660 4651 c-19 -4 -46 -13 -60 -20 -36 -19 -88 -80 -95 -112 -13 -60
29 -138 97 -183 25 -16 155 -17 2064 -16 2022 1 2038 1 2070 21 138 85 133
231 -11 296 -38 17 -138 18 -2035 20 -1097 0 -2011 -2 -2030 -6z"/>
<path d="M5303 3970 c-44 -14 -121 -95 -133 -142 -19 -68 21 -159 89 -205 47
-32 139 -32 201 0 57 28 102 93 107 156 4 38 -1 54 -25 92 -44 68 -90 99 -154
104 -29 3 -67 0 -85 -5z"/>
<path d="M804 3960 c-37 -12 -111 -80 -124 -116 -26 -66 12 -159 81 -202 l34
-20 1943 4 c1934 4 1943 4 1983 24 48 25 99 100 99 145 0 43 -48 107 -106 141
l-48 28 -1915 3 c-1219 2 -1927 -1 -1947 -7z"/>
</g>
</svg>
